<svg width="128" height="128" viewBox="0 0 128 128" fill="none" xmlns="http://www.w3.org/2000/svg">
<rect width="128" height="128" rx="32" fill="#282828"/>
<path d="M60.4667 78.336V49.1827H68.6136C70.5305 49.1827 72.1945 49.5555 73.6056 50.3009C75.0167 51.0198 76.1083 52.0448 76.8804 53.376C77.6791 54.7072 78.0785 56.278 78.0785 58.0884V69.3903C78.0785 71.1741 77.6791 72.745 76.8804 74.1028C76.1083 75.4606 75.0167 76.5123 73.6056 77.2577C72.1945 77.9766 70.5305 78.336 68.6136 78.336H60.4667ZM64.7798 74.4223H68.6136C70.2111 74.4223 71.4624 73.983 72.3676 73.1044C73.2994 72.1992 73.7654 70.9612 73.7654 69.3903V58.0884C73.7654 56.5443 73.2994 55.3329 72.3676 54.4543C71.4624 53.5491 70.2111 53.0965 68.6136 53.0965H64.7798V74.4223Z" fill="#EBDBB2"/>
<path d="M84.4526 78.336V49.1827H93.598C95.435 49.1827 97.0325 49.5421 98.3903 50.261C99.7481 50.9532 100.8 51.9383 101.545 53.2163C102.317 54.4942 102.703 55.9985 102.703 57.729C102.703 59.6726 102.198 61.3632 101.186 62.8009C100.201 64.212 98.8562 65.2104 97.1523 65.7961L103.103 78.336H98.1906L92.8791 66.3552H88.7657V78.336H84.4526ZM88.7657 62.5613H93.598C95.0356 62.5613 96.1805 62.1353 97.0325 61.2833C97.8844 60.4047 98.3104 59.2466 98.3104 57.8089C98.3104 56.318 97.8844 55.1465 97.0325 54.2945C96.1805 53.4426 95.0356 53.0166 93.598 53.0166H88.7657V62.5613Z" fill="#EBDBB2"/>
<path d="M45.3465 78.7354C43.4828 78.7354 41.8721 78.4159 40.5143 77.7769C39.1564 77.1379 38.1048 76.2327 37.3593 75.0612C36.6138 73.8632 36.2278 72.4388 36.2012 70.7881H39.3961C39.3961 72.3589 39.9285 73.6102 40.9935 74.5421C42.0585 75.4473 43.5095 75.8999 45.3465 75.8999C47.1037 75.8999 48.4748 75.4606 49.4599 74.582C50.4716 73.7034 50.9775 72.492 50.9775 70.9478C50.9775 69.6699 50.6314 68.565 49.9392 67.6332C49.2469 66.6747 48.2752 66.0091 47.0238 65.6364L43.2299 64.4383C41.2331 63.8525 39.6889 62.8541 38.5973 61.4431C37.5324 60.0054 36.9999 58.3281 36.9999 56.4111C36.9999 54.8403 37.346 53.4958 38.0382 52.3776C38.7305 51.2328 39.7022 50.3409 40.9536 49.7019C42.2315 49.0629 43.7225 48.7434 45.4264 48.7434C47.9557 48.7434 49.9791 49.449 51.4967 50.86C53.0142 52.2711 53.773 54.1614 53.773 56.5309H50.6181C50.6181 55.0134 50.1521 53.8153 49.2203 52.9367C48.2885 52.0581 47.0105 51.6188 45.3865 51.6188C43.7624 51.6188 42.4844 52.0182 41.5526 52.8169C40.6474 53.589 40.1948 54.6939 40.1948 56.1316C40.1948 57.3829 40.5409 58.4745 41.2331 59.4063C41.9253 60.3382 42.8971 61.0038 44.1484 61.4031L47.9424 62.6012C49.9125 63.2136 51.4434 64.2519 52.535 65.7162C53.6266 67.1805 54.1724 68.8978 54.1724 70.868C54.1724 72.4388 53.7996 73.8232 53.0542 75.0213C52.3353 76.1928 51.3103 77.1113 49.9791 77.7769C48.6745 78.4159 47.1303 78.7354 45.3465 78.7354Z" fill="#689D6A"/>
<path d="M15.5833 82.729L29.7605 45.1891H33.5545L19.3772 82.729H15.5833Z" fill="#8EC07C"/>
</svg>
